<svg version="1.1" id="Слой_1" xmlns="http://www.w3.org/2000/svg" x="0" y="0" viewBox="0 0 595.28 595.28" style="enable-background:new 0 0 595.28 595.28" xml:space="preserve"><style>.st0{fill:#173557}.st1{fill:#f39200}</style><switch><g><path class="st0" d="M78.57 438.27v-78.2h29.39v21.86l17.12-21.86h33.15l-26.72 32.42 29.14 45.78h-31.09l-16.03-27.2-5.59 6.8v20.4H78.57z"/><path class="st0" d="m157.02 438.27 30.12-78.2h30.48l30.12 78.2h-30.6l-5.59-14.57h-18.34l-5.59 14.57h-30.6zm39.34-34.61h11.9l-5.95-14.94-5.95 14.94zM261.45 438.27v-28.42l-28.29-49.79h30.6l12.39 24.89 12.39-24.89h30.6l-28.29 49.79v28.42h-29.4z"/><path class="st1" d="M322.17 438.27v-20.52h22.59v20.52h-22.59zM389.32 439.48c-7.37 0-14.01-1.21-19.92-3.64-5.91-2.43-10.58-6.03-14.03-10.81-3.44-4.78-5.16-10.64-5.16-17.61v-47.36h29.39v43.59c0 7.29 3.24 10.93 9.71 10.93 6.48 0 9.71-3.64 9.71-10.93v-43.59h29.39v47.36c0 6.96-1.72 12.83-5.16 17.61-3.44 4.78-8.12 8.38-14.03 10.81-5.89 2.43-12.53 3.64-19.9 3.64zM428.42 438.27l30.12-78.2h30.48l30.12 78.2h-30.6l-5.59-14.57h-18.34l-5.59 14.57h-30.6zm39.35-34.61h11.9l-5.95-14.94-5.95 14.94z"/><path class="st0" d="M178.02 479.96v-12.29h3.59v12.29h-3.59zM183.33 479.96v-12.29h3.05l4.64 6.51v-6.51h3.59v12.29h-3.07l-4.62-6.49v6.49h-3.59zM199.02 479.96v-9.62h-3.46v-2.67h10.5v2.67h-3.46v9.62h-3.58zM207.02 479.96v-12.29h9.32v2.75h-5.73v2h5.02v2.79h-5.02v2h5.73v2.75h-9.32zM217.48 479.96v-12.29h6.4c1.01 0 1.83.18 2.47.55s1.12.88 1.44 1.54c.32.66.48 1.42.48 2.28 0 .83-.21 1.56-.62 2.19-.41.63-.96 1.11-1.65 1.44.14.11.26.25.36.41.1.16.22.38.34.66l1.41 3.23h-3.74l-1.3-2.96c-.1-.23-.23-.39-.37-.49-.15-.09-.35-.14-.62-.14h-1.01v3.59h-3.59zm3.59-6.33h1.89c.52 0 .93-.14 1.21-.41.29-.27.43-.67.43-1.17 0-1.08-.51-1.62-1.53-1.62h-2v3.2zM229.6 479.96v-12.29h3.59v12.29h-3.59zM240.81 480.16c-2.04 0-3.59-.5-4.67-1.49s-1.61-2.6-1.61-4.81c0-1.53.24-2.76.73-3.69.48-.94 1.19-1.62 2.13-2.04.94-.43 2.08-.64 3.43-.64s2.49.21 3.43.64c.94.43 1.65 1.11 2.13 2.04.48.94.73 2.17.73 3.69 0 2.21-.54 3.82-1.62 4.81-1.11.99-2.66 1.49-4.68 1.49zm0-3.06c.92 0 1.58-.26 2-.77s.62-1.34.62-2.47c0-1.21-.21-2.06-.62-2.57s-1.08-.75-2-.75c-.92 0-1.58.25-1.99.75-.41.5-.62 1.36-.62 2.57 0 1.13.21 1.96.62 2.47.41.51 1.07.77 1.99.77zM248.43 479.96v-12.29h6.4c1.01 0 1.83.18 2.47.55s1.12.88 1.44 1.54c.32.66.48 1.42.48 2.28 0 .83-.21 1.56-.62 2.19-.41.63-.96 1.11-1.65 1.44.14.11.26.25.36.41.1.16.22.38.34.66l1.41 3.23h-3.74l-1.3-2.96c-.1-.23-.23-.39-.37-.49-.15-.09-.35-.14-.62-.14h-1.01v3.59h-3.59zm3.58-6.33h1.89c.52 0 .93-.14 1.21-.41.29-.27.43-.67.43-1.17 0-1.08-.51-1.62-1.53-1.62h-2v3.2zM264.46 479.96v-12.29h5.5c1.26 0 2.34.21 3.23.62.89.41 1.57 1.08 2.04 1.99s.71 2.12.71 3.62c0 2.11-.52 3.65-1.55 4.62-1.03.97-2.51 1.45-4.43 1.45h-5.5zm3.59-2.74h1.45c.6 0 1.1-.09 1.51-.26.41-.17.72-.5.94-.97s.32-1.17.32-2.09c0-.92-.1-1.63-.3-2.13s-.5-.85-.91-1.05-.93-.3-1.57-.3h-1.45v6.8zM283.17 480.16c-2.04 0-3.59-.5-4.67-1.49s-1.61-2.6-1.61-4.81c0-1.53.24-2.76.73-3.69.48-.94 1.19-1.62 2.13-2.04.94-.43 2.08-.64 3.43-.64s2.49.21 3.43.64c.94.43 1.65 1.11 2.13 2.04.48.94.73 2.17.73 3.69 0 2.21-.54 3.82-1.62 4.81-1.1.99-2.66 1.49-4.68 1.49zm0-3.06c.92 0 1.58-.26 2-.77s.62-1.34.62-2.47c0-1.21-.21-2.06-.62-2.57s-1.08-.75-2-.75c-.92 0-1.58.25-1.99.75-.41.5-.62 1.36-.62 2.57 0 1.13.21 1.96.62 2.47.41.51 1.07.77 1.99.77zM296.69 480.16c-2.04 0-3.59-.5-4.67-1.49s-1.61-2.6-1.61-4.81c0-1.53.24-2.76.73-3.69.48-.94 1.19-1.62 2.13-2.04.94-.43 2.08-.64 3.43-.64s2.49.21 3.43.64c.94.43 1.65 1.11 2.13 2.04s.73 2.17.73 3.69c0 2.21-.54 3.82-1.62 4.81-1.11.99-2.66 1.49-4.68 1.49zm0-3.06c.92 0 1.58-.26 2-.77s.62-1.34.62-2.47c0-1.21-.21-2.06-.62-2.57s-1.08-.75-2-.75c-.92 0-1.58.25-1.99.75-.41.5-.62 1.36-.62 2.57 0 1.13.21 1.96.62 2.47.4.51 1.07.77 1.99.77zM304.3 479.96v-12.29h6.4c1.01 0 1.83.18 2.47.55s1.12.88 1.44 1.54c.32.66.48 1.42.48 2.28 0 .83-.21 1.56-.62 2.19-.41.63-.96 1.11-1.65 1.44.14.11.26.25.36.41.1.16.22.38.34.66l1.41 3.23h-3.74l-1.3-2.96c-.1-.23-.23-.39-.37-.49-.15-.09-.35-.14-.62-.14h-1.01v3.59h-3.59zm3.59-6.33h1.89c.52 0 .93-.14 1.21-.41.29-.27.43-.67.43-1.17 0-1.08-.51-1.62-1.53-1.62h-2v3.2zM320.45 480.16c-.83 0-1.61-.07-2.35-.2s-1.37-.32-1.89-.56v-2.96c.57.27 1.21.48 1.91.65.7.17 1.35.25 1.97.25.64 0 1.12-.05 1.44-.16.32-.11.49-.35.49-.73 0-.27-.09-.48-.28-.63-.18-.15-.47-.29-.86-.42s-.89-.29-1.52-.48c-.83-.27-1.48-.56-1.97-.88-.48-.32-.83-.71-1.04-1.16s-.31-1.02-.31-1.68c0-1.21.43-2.13 1.29-2.76.86-.63 2.13-.95 3.83-.95.67 0 1.37.06 2.09.17s1.3.24 1.75.38v2.98c-.6-.24-1.17-.41-1.72-.52a8.63 8.63 0 0 0-1.55-.15c-.56 0-1.04.04-1.43.13-.39.09-.59.32-.59.69 0 .32.17.55.51.7s.94.33 1.8.56c1.01.27 1.77.59 2.3.97s.89.82 1.08 1.33c.19.5.29 1.07.29 1.71 0 1.12-.43 2.02-1.3 2.7-.87.68-2.18 1.02-3.94 1.02zM337.4 480.16c-2.23 0-3.93-.55-5.1-1.64-1.17-1.09-1.76-2.64-1.76-4.64 0-2.06.57-3.64 1.72-4.74s2.85-1.65 5.12-1.65c.76 0 1.44.06 2.04.17.6.11 1.17.27 1.72.48v3.13a8.653 8.653 0 0 0-3.51-.73c-1.16 0-2.02.26-2.58.79s-.84 1.38-.84 2.55c0 1.15.3 1.97.89 2.47s1.45.75 2.57.75c.61 0 1.21-.06 1.79-.17.58-.12 1.16-.29 1.73-.54v3.15c-.55.19-1.12.34-1.73.45-.61.11-1.29.17-2.06.17zM348.23 480.16c-2.04 0-3.59-.5-4.67-1.49s-1.61-2.6-1.61-4.81c0-1.53.24-2.76.73-3.69.48-.94 1.19-1.62 2.13-2.04.94-.43 2.08-.64 3.43-.64s2.49.21 3.43.64c.94.43 1.64 1.11 2.13 2.04.48.94.73 2.17.73 3.69 0 2.21-.54 3.82-1.62 4.81-1.11.99-2.66 1.49-4.68 1.49zm0-3.06c.92 0 1.58-.26 2-.77.41-.52.62-1.34.62-2.47 0-1.21-.21-2.06-.62-2.57-.41-.5-1.08-.75-2-.75-.92 0-1.58.25-2 .75-.41.5-.62 1.36-.62 2.57 0 1.13.21 1.96.62 2.47.42.51 1.08.77 2 .77zM355.85 479.96v-12.29h3.49l3.05 6.24 3.04-6.24h3.47v12.29h-3.59v-6.15l-1.97 4.05h-1.93l-1.99-4.05v6.15h-3.57zM370.62 479.96v-12.29h6.34c1 0 1.84.2 2.49.6.66.4 1.14.95 1.46 1.63s.48 1.45.48 2.29c0 .87-.18 1.63-.55 2.31s-.89 1.2-1.57 1.58-1.47.57-2.39.57h-2.67v3.3h-3.59zm3.59-6.05h1.85c.56 0 .98-.16 1.25-.48.27-.32.41-.73.41-1.24 0-.55-.13-.98-.38-1.3-.25-.32-.65-.48-1.18-.48h-1.95v3.5zM380.43 479.96l4.71-12.29h3.8l4.72 12.29h-3.74l-1.03-2.62h-3.7l-1.01 2.62h-3.75zm5.23-5.19h2.75l-1.37-3.61-1.38 3.61zM395 479.96v-12.29h3.05l4.64 6.51v-6.51h3.59v12.29h-3.07l-4.62-6.49v6.49H395zM411.67 479.96v-4.5l-4.43-7.79h3.74l2.48 4.64 2.48-4.64h3.74l-4.43 7.79v4.5h-3.58zM297.64 89.98l-121 82.19v158.54h29.82V187.65l91.18-61.93 91.17 61.93v143.06h29.83V172.17z"/><path class="st0" d="m297.64 161.99-61.18 41.55v127.17h29.38v-111.6l31.8-21.6 31.8 21.6v111.6h29.37V203.54z"/><path class="st1" d="M265.84 330.71v-111.6l31.8-21.6 31.8 21.6v111.6"/></g></switch></svg>